<?xml version="1.0" standalone="no"?>
<!DOCTYPE svg PUBLIC "-//W3C//DTD SVG 20010904//EN"
 "http://www.w3.org/TR/2001/REC-SVG-20010904/DTD/svg10.dtd">
<svg version="1.0" xmlns="http://www.w3.org/2000/svg"
 width="574.000000pt" height="574.000000pt" viewBox="0 0 574.000000 574.000000"
 preserveAspectRatio="xMidYMid meet">
<metadata>
Created by potrace 1.14, written by Peter Selinger 2001-2017
</metadata>
<g transform="translate(0.000000,574.000000) scale(0.100000,-0.100000)"
fill="#000000" stroke="none">
<path d="M2568 5730 c-1 -3 -2 -327 -3 -720 l-2 -715 -796 -3 -797 -2 0 -305
c0 -237 3 -305 13 -306 6 0 364 -1 795 -1 710 -1 782 -2 783 -17 0 -9 1 -836
1 -1838 l1 -1823 307 0 307 0 1 1813 c0 996 1 1824 1 1838 l1 26 790 0 c435 0
793 3 796 6 5 4 8 502 5 589 -1 17 -48 18 -798 20 l-796 3 -1 720 -1 720 -302
0 c-167 0 -304 -2 -305 -5z"/>
</g>
</svg>
